<?xml version="1.0" encoding="utf-8"?>
<!-- Generator: Adobe Illustrator 17.1.0, SVG Export Plug-In . SVG Version: 6.00 Build 0)  -->
<!DOCTYPE svg PUBLIC "-//W3C//DTD SVG 1.1//EN" "http://www.w3.org/Graphics/SVG/1.1/DTD/svg11.dtd">
<svg version="1.1" id="CURVES" xmlns="http://www.w3.org/2000/svg" xmlns:xlink="http://www.w3.org/1999/xlink" x="0px" y="0px"
	 viewBox="0 0 2810 837" enable-background="new 0 0 2810 837" xml:space="preserve">
<g>
	<g>
		<path d="M307.3,215.2c12.6,0.1,25.5-2.6,37.2-6.8c9.8-3.5,18.9-8.8,26.4-16c10.8-10.3,21.3-20.7,29.9-32.9
			c21.7-30.7,28.8-70.4,7.7-103.3C389,25.6,352,10.9,316.8,11c-21.3,0.1-42.3,5.8-61.4,15.1c-24.8,12.2-44.7,31.2-63.6,51
			c-56.9,59.4-47.1,154.6-2.7,218.2c12.6,18,28.3,33.8,46.1,46.7c21.2,15.5,45.5,27,69.4,37.7c12,5.4,24.2,10.4,36.5,15.1
			c10.6,4,21.2,7.7,31.5,12.5c18.8,8.8,36.2,20.6,51.2,34.9c27.9,26.7,45.8,62.4,51.6,100.5c6,39.9-2,80.9-19.4,117
			c-9.9,20.5-23,39.3-38.1,56.3c-0.9,1.1-1.9,2.1-2.9,3.1c-0.3,0.3-0.6,0.7-1,1c-3.6,3.8-1.4,1.6,6.7-6.6c-2.3,2.3-4.7,4.4-7.1,6.6
			c-5.2,4.7-10.7,9.3-16.2,13.6c-9.9,7.8-20.3,14.8-31.1,21.3c-40.3,24.2-86.5,38.8-133.4,41.3c-41.9,2.2-85-5.9-121.7-26.7
			c-35.4-20.1-59.9-53.5-72.3-92c-13.2-40.7-12.4-85.6,1.4-126c7.3-21.3,18.5-41.2,32.9-58.6c2-2.4,4.1-4.7,6.2-7.1
			c0.3-0.3,0.6-0.7,1-1c4.3-4.5,1.4-1.6-8.7,8.7c1.2-1.1,2.4-2.2,3.6-3.2c5.3-4.7,11.1-8.9,17-12.8c9.8-6.4,20.4-11.7,31.3-16.1
			c15.1-6.1,31.6-11,47.9-12.5c0.5,0,2.5-2.4,2.7-2.5c2.1-2.1,4.2-4.1,6.3-6.2c2.1-2.1,4.2-4.2,6.2-6.3c0,0,2.2-2.6,2.5-2.7
			c-32.2,3-65.1,17.1-90.5,36.7c-12.2,9.4-22.9,20.9-33.6,32c-7.8,8.1-14.8,16.9-21.1,26.2c-12.4,18.4-21.2,39.2-26.5,60.7
			c-10.1,41.1-6.6,85.5,9.8,124.5c7.8,18.4,18.8,35.5,32.7,50c13.8,14.4,30.7,25.2,48.7,33.5c83.2,38.4,184.8,17,257.8-33.6
			c23.2-16.1,43.5-35.9,63-56.3c15.5-16.2,28.9-34.2,39.7-53.9c19.5-35.6,29-76.5,25.2-117c-3.6-38.3-19.9-74.7-46-102.9
			c-13.9-15-30.6-27.3-48.6-37c-20.7-11.2-43.6-17.8-65.2-27c-45.5-19.3-90.3-42-121.5-81.5c-25.7-32.5-40.9-73.2-42.9-114.6
			c-1.8-38,8.8-77.3,34.1-106.2c0.7-0.8,1.5-1.7,2.3-2.5c-3.7,3.7-7.4,7.4-11.1,11.1c0.8-0.7,1.6-1.5,2.4-2.2c2.6-2.4,5.3-4.7,8.1-7
			c5.1-4.2,10.4-8,15.9-11.6c9.7-6.4,20.2-11.6,31.1-15.6c19.2-7.2,40-10,60.4-8c34.6,3.4,68.5,22.6,83.6,54.8
			c7.3,15.6,8.9,33.2,5.7,50.1c-1.9,9.8-5.5,19.1-10,27.9c-2.5,4.8-5.3,9.3-8.3,13.8c-1.6,2.4-3.3,4.7-5.1,6.9
			c-0.9,1.2-1.8,2.3-2.8,3.5c-0.8,1-1.7,2-2.5,3c13.8-13.3,17.9-17.5,12.3-12.3c-15.7,14.3-40.2,20.6-61.1,20.5
			c-0.4,0-2.6,2.5-2.7,2.5c-2.1,2.1-4.2,4.1-6.3,6.2c-2.1,2.1-4.2,4.2-6.2,6.3C309.8,212.5,307.5,215.2,307.3,215.2L307.3,215.2z"/>
	</g>
</g>
<g>
	<g>
		<path d="M295.1,150.1c-14.1,20.2-16.2,46.6-15.6,70.5c0.7,33.2,7,66.2,13.9,98.6c15.7,73.5,38,146,47.4,220.8
			c3.8,30.2,5.7,61.9-1.1,91.8c-2.8,12.2-7.4,24.1-14.3,34.6c-1.6,2.4-3.3,4.7-5.2,6.9c-1,1.1-2,2.3-3,3.3c3.5-3.5,6.9-7,10.4-10.4
			c-0.6,0.5-1.1,1-1.7,1.6c-1.1,1-2.2,2-3.4,3c-7,6.1-14.6,11.6-22.5,16.4c-49.6,30.2-126.5,31.6-159.9-23.5
			c-31.3-51.7-0.5-116.9,30.3-160.8c-2.2,3.2-6.2,6-8.9,8.8c-2.8,2.8-6.4,5.6-8.8,8.9c-24.1,34.3-45.2,75.6-42.8,118.7
			c1.6,29.1,16.4,55.3,41.1,71c25,15.8,56.4,18.8,84.9,13c16.4-3.3,32.1-9.8,46.4-18.4c19.5-11.7,35.4-28,51-44.3
			c18.3-19.1,25.4-44.7,27.6-70.5c2.8-32.8-1.5-66.1-7.1-98.4C341,417.4,318.5,345.2,305,270.9c-4.8-26.3-8.5-53.1-7.9-79.9
			c0.5-20.2,3.8-41.7,15.6-58.6c-2.2,3.2-6.2,6-8.9,8.8C301,144,297.4,146.9,295.1,150.1L295.1,150.1z"/>
	</g>
</g>
<g>
	<g>
		<path d="M310.2,67.1c-13.1,6.4-22.8,16.2-33,26.5c-9,9-16.9,18-22.7,29.4c-11.2,21.8-15.1,46.9-16.6,71.1
			c-1.9,30.6,0.4,61.4,3.8,91.9c3.9,34.6,9.7,69.1,16,103.3c12.3,67.9,27.4,135.6,35.1,204.3c3.1,27.3,5,55.1,2.5,82.5
			c-1.8,19.9-6.2,40.9-18.5,57.1c-0.6,0.8-1.3,1.7-2,2.5c-6.8,7.9,16.9-16.5,11-10.9c-3.2,3-6.6,5.8-10.1,8.5
			c-6.2,4.7-12.8,8.7-19.8,12c-13.2,6.4-27.6,9.9-42.2,10.8c-29,1.7-57.9-7.8-81.4-24.6c-24.8-17.7-43-43.7-51.5-72.9
			c-10.2-35-4.9-72.3,9.1-105.5c8-18.8,18.9-36.4,31.2-52.7c7.5-9.9,15.7-19.4,24.3-28.4c2.9-3,1.6-1.7-4.1,4.1
			c1.4-1.4,2.9-2.8,4.4-4.1c2.7-2.5,5.5-5,8.3-7.5c5.7-5.1,11.5-9.9,17.4-14.7c6.5-5.2,11.3-12.5,17.7-17.7
			c-24.7,20-47.9,42.3-69,66c-16.2,18.1-30.6,38.1-41.7,59.8c-17,33.2-25.1,71.2-17.7,108.1c11.9,59.2,65.1,106.3,126,108
			c30.4,0.9,59.3-11,81.5-31.4c11.5-10.5,24.2-21.6,31.9-35.5c4.8-8.6,7.8-18.2,9.9-27.8c5.4-24.7,4.8-50.6,3.1-75.6
			c-2.2-31.7-6.9-63.3-12.2-94.6c-11.8-69.9-27.2-139.3-37.3-209.5c-4.6-31.9-8.1-64.1-8.5-96.4c-0.3-26.3,1.4-53.3,9.4-78.6
			c3.6-11.5,8.7-22.5,15.8-32.3c1.6-2.2,3.3-4.3,5.1-6.4c7.1-8-18.9,18.2-11,11c1.1-1,2.3-1.9,3.4-2.9c4.6-3.6,9.6-6.7,14.9-9.2
			c3.2-1.6,6.5-6.3,8.9-8.8c2.1-2.1,4.2-4.2,6.2-6.3C308.1,69.3,309.5,67.4,310.2,67.1L310.2,67.1z"/>
	</g>
</g>
<g>
	<g>
		<path d="M349.6,303.4c-5.7,37.4-0.1,74.5,12.1,110c11.3,33,27.5,63.9,41,96c12.4,29.3,22.4,60.5,20.3,92.8
			c-2.5,39.1-24.2,73.5-50.7,101.2c15.9-16.6,3.5-3.7-0.7,0.1c-3.7,3.3-7.5,6.6-11.3,9.8c-8.1,6.8-16.5,13.3-25,19.5
			c-3.5,2.6-6.6,6.4-9.6,9.5c-3,3-6,7.1-9.5,9.6c25.4-18.7,48.2-39.8,70.3-62.3c15.3-15.6,29.2-32.6,39.6-51.9
			c16-29.7,19.8-62.8,12.9-95.7c-6.8-32.5-21.9-62.8-35.5-92.9c-14.7-32.4-28.7-65.5-34.4-100.8c-3.4-21.2-3.5-42.8-0.3-64
			c-0.1,0.4-2.8,2.7-2.9,2.7c-2.3,2.2-4.5,4.5-6.8,6.7s-4.5,4.5-6.7,6.8C352.1,300.7,349.6,302.8,349.6,303.4L349.6,303.4z"/>
	</g>
</g>
<g>
	<g>
		<path d="M419.4,467.8c-9,0.1-18.3,3.5-26.7,6.2c-15,4.7-29.8,10.2-44.4,15.8c-34.8,13.4-69.1,28.1-102.6,44.5
			c-17.2,8.4-36.3,16.9-50.8,29.6c-7.2,6.3-14.9,13.3-20.7,20.9c-3.2,4.2,0.5,6.9,4.6,7.6c6,1.1,12.7-0.7,18.1-3.3
			c3.4-1.6,6-4.1,8.6-6.7c5.4-5.3,11.1-10.6,16.1-16.3c-3.9,4.4-12.1,11.4-17.1,17c19.6-22.2,19.3-17.8,12.7-13.3
			c-0.9,0.6-1.8,1.1-2.7,1.6c-1.9,1-3.9,1.7-5.9,2.3c-3.9,1.2-8.1,1.5-12.1,1c-2.3-0.3-5-1.2-5.7-3.6c-0.4-1.1,0.2-2.4,0.8-3.4
			c4.2-7.8-21.6,19.9-12.8,12.6c8.9-7.4,19.5-12.9,29.7-18.3c31.9-17,65.2-31.5,98.7-45.2c19.4-7.9,38.9-15.5,58.7-22.1
			c11.3-3.8,24.1-9.1,36.2-9.2c0.4,0,2.6-2.5,2.7-2.5c2.1-2.1,4.2-4.1,6.3-6.2c2.1-2.1,4.2-4.2,6.2-6.3
			C416.9,470.5,419.2,467.8,419.4,467.8L419.4,467.8z"/>
	</g>
</g>
<g>
	<g>
		<path d="M441.3,336.3c4.2,9.1,10,18.9,19.9,22.7c6.8,2.6,13.9,0.1,19.2-4.4c11.4-9.7,16.6-24.1,15.5-38.9
			c-1.5-19.3-15.6-38.4-35.6-40.3c-16.5-1.6-33.2,7.8-44.6,19c-13.8,13.6-21.7,30.9-23.6,50.2c-2.5,26.2,6.5,52.5,16.1,76.5
			c9.9,24.8,22.3,48.7,31.6,73.7c5.1,13.8,8.7,28.3,11,42.8c6,37.2,3.3,76-10.4,111.2c-19.7,50.7-62.3,87.1-111.1,109.2
			c-41.3,18.7-94.7,26.9-134.4-0.3c-36.3-24.8-37-72.1-18.7-108.4c12.1-24.1,41-53.3,70.6-38.9c7.7,3.7,14.2,11.8,12,20.7
			c-0.5,2-1.5,3.8-2.7,5.4c-1.2,1.4-1.1,1.3,0.4-0.3c-0.7,0.7-1.5,1.3-2.3,1.8c-1.4,1-2.9,1.8-4.4,2.6c-8,4-17.3,5.1-26,5.6
			c-1,0.1-1.9,2.8-2.8,2.8c14.3-0.8,29.4-3.9,38.4-15.9c7.1-9.5-0.2-20.4-9-25.3c-13.7-7.5-30.5-3.1-42.9,4.9
			c-12.9,8.3-23.5,21.1-31.1,34.1c-20.3,34.8-22.3,82.8,11.2,110.1c36.8,30,90.2,23.5,131.2,7.1c44.1-17.6,85.1-48.9,110.3-89.5
			c21.1-34,29.3-74.4,27.4-114c-0.8-16.5-3.4-32.9-7.6-48.9c-4.7-18.1-12.3-35.1-19.9-52.1c-20.5-46.2-51-103.6-22.7-152.9
			c8.4-14.7,24.6-25.1,41.2-28c19.5-3.4,34.9,8.5,42.3,25.9c3.6,8.3,4.3,17.6,2.9,26.4c-1.2,7.5-4.5,17-10.7,21.9
			c-16.3,13-31.3-5.5-37.7-19.4C444.3,333.9,441.1,335.9,441.3,336.3L441.3,336.3z"/>
	</g>
</g>
<g>
	<g>
		<path d="M326,742.9c10.6-29.7,12.3-61.8,11.2-93c-1.3-38-7.3-75.8-14.3-113.1c-15.3-81.6-37-161.9-49.6-244
			c-5.6-36.3-9.4-73.1-7.7-109.9c1.4-30.2,7.1-61.1,22.2-87.7c4.1-7.3,9-14.1,14.5-20.4c-0.6,0.7-1.9,1.8-2.7,2.7
			c-42.7,48.7-40.4,122-33.8,182.3c8.9,81.9,30.2,161.9,47,242.4c8.1,38.7,15.4,77.7,19.4,117.1c3.4,33.3,4.4,67.4-1.8,100.4
			c-1.7,8.9-4,17.6-7,26.1C323.6,744.6,325.6,744.1,326,742.9L326,742.9z"/>
	</g>
</g>
<g>
	<g>
		<path d="M302.8,142.5c18.8-18.9,40-37.6,64.7-48.3c12.3-5.4,26.7-8.4,39.7-3.5c24.5,9.3,29.6,41.6,29.3,64.3
			c-0.4,35-14.1,67.5-32.1,97c-23.5,38.6-53.6,73.1-84.5,105.9c-30.8,32.6-63.5,63.4-96.2,94.1c-21.7,20.3-43.7,40.4-64.1,62
			c0.6-0.7,1.9-1.8,2.7-2.7c26.6-28,55.8-53.6,83.8-80.2c31.2-29.6,61.9-59.7,90.9-91.4c29.1-32,57.2-65.9,78-104
			c15.9-29.1,26.2-61.5,23.9-95c-1.6-23.2-11.2-51.4-37.6-55.1c-15.5-2.1-31.3,4.9-44.4,12.4c-20.6,11.9-38.3,28.4-55,45.1
			C300.1,145.2,302,143.3,302.8,142.5L302.8,142.5z"/>
	</g>
</g>
<g>
	<g>
		<path d="M317.3,205.6c18.8-20.6,36.8-42,52.5-65c11.2-16.4,21.3-33.7,28.3-52.3c8-21.3,11.7-47.5-3.6-66.6
			C381.2,5.2,358.4-0.2,338.3-1.5c-27.9-1.8-56.8,3.9-82.6,14.2c-37.4,14.9-69.8,43.1-91,77.3c-24.5,39.5-31.8,87.3-23.1,132.7
			c5,25.8,15.1,51.1,29.1,73.4c11.4,18.1,26.7,33.9,46.1,43.3c32.7,15.9,70.6,8.2,100.8-9.6c16-9.4,30.2-22.1,42.3-36.2
			c-1.1,1.3-2.5,2.3-3.5,3.5c-23.1,27-58.9,46.5-94.8,47.5c-18.1,0.5-35.8-4.6-51-14.3c-19.5-12.3-33.5-31.5-44.1-51.6
			c-23-44-31.4-95.1-18.9-143.5c11.6-45,40.8-83.6,80.8-107.2c27.6-16.3,60-25.1,92-26.2c21.4-0.7,45.2,2.2,62.7,15.5
			c18,13.7,21.1,36.2,16.8,57.2c-3.5,16.6-10.9,32.3-19.2,47c-12.2,21.6-27.3,41.6-43.1,60.7c-7.6,9.1-15.4,18-23.4,26.8
			C314.7,208.2,316.3,206.7,317.3,205.6L317.3,205.6z"/>
	</g>
</g>
<g>
	<g>
		<path d="M207.5,578.8c25.4-19.7,45.3-47.3,48.7-80c2.9-28.5-8.9-57.9-34.6-72.1c-34.5-19-77.5-4.1-109.3,13.3
			c-33.5,18.3-62.5,46.1-82.4,78.6C-11,585.4-12,673.2,25.8,741.5c8.9,16,19.7,31,33.6,42.9c14.2,12.2,30.9,21.1,48.3,27.7
			c41,15.7,86.5,18.3,129.7,12.5c49.7-6.6,97.6-25.6,138.4-54.7c38.9-27.8,73.9-63.2,99.1-104c22.8-36.9,37.4-79.6,37-123.2
			c-0.2-18.9-2.7-40.3-11.1-57.5c-9.7-19.9-31-30.9-52.8-28.3c-10.4,1.2-20.2,5.7-29,11.2c-1.4,0.9-2.2,2.7-3.5,3.5
			c20.9-13.1,46.6-16.7,67.1-1c16.4,12.6,21.3,33.7,24.1,53.2c6,41.8-4,84.6-22.4,122.2C460,696,420.6,737.6,375.4,769.2
			c-41,28.6-89.2,46.4-138.7,52.5c-43.1,5.3-88.3,1.7-128.8-14.4c-17.2-6.8-33.5-16.2-47.3-28.5c-13.7-12.2-24.2-27.8-32.9-43.9
			C-9.5,666-6.2,578.3,35.3,512.1c24.1-38.3,61.4-67,103.9-82.4c31.3-11.4,69.9-13,94.8,12.7c15.7,16.3,21,39.8,18.5,61.7
			c-3.2,28.1-19.3,53.9-41.4,71.1C209.7,576.2,208.8,577.8,207.5,578.8L207.5,578.8z"/>
	</g>
</g>
<g>
	<g>
		<g>
			<path fill="#0E0F10" d="M695.2,154.8c-4.6,66.8-9.1,133.6-13.7,200.3c-2.9,39.4-10.3,85.6-44.5,110.7c-26.8,20-65.1,13.1-89-8
				c-38.8-33.7-9.7-80.5,21.7-107.9c25.7-22.3,59.4-37.7,93.6-38.2c20.5,0,43.4,2.3,58.8,17.7c12.6,12.6,14.3,31.4,16,47.4
				c1.1,12.6,1.7,25.7-2.3,37.7c-6.8,20-14.3-6.3-14.8-13.7c0-23.4,29.7-82.8,58.8-55.4c12,10.8,21.7,33.1,18.3,49.1
				c-5.1,25.1-47.9-32-50.8-36c-2.3-3.4-9.7-5.1-6.8,1.1c7.4,20.5,24,40,43.4,49.7c17.1,8,36.5,6.3,54.2-1.1
				c13.1-5.7,24.5-13.7,34.8-22.8c10.8-8.6,23.4-19.4,29.1-32.5c5.7-13.1-2.3-27.4-13.1-34.8c-12.6-8.6-28.5-6.8-40,2.9
				c-17.7,14.8-23.4,47.9-19.4,70.2c2.9,16,12.6,30.8,28.5,36c12.6,4,37.1,5.1,38.8-13.1c1.7-16-25.1-28-37.1-21.7
				c-9.1,5.1-6.8,18.3-4,26.3c2.3,8,11.4,10.8,19.4,12c25.1,2.3,63.4-12,70.8-38.2c1.1-3.4-4-8.6-7.4-7.4
				c-28,9.7-2.3,46.8,21.7,37.1c9.1-3.4,11.4-17.1,8-25.1c-4.6-11.4-14.3-16-26.3-13.7c-4.6,0.6,1.7,9.7,6.3,8.6
				c14.8-2.9,16.6,15.4,5.7,21.7c-6.3,4-18.3,0-18.8-8c0-5.7,4.6-10.3,9.7-12c-2.3-2.3-5.1-5.1-7.4-7.4c-6.8,22.8-36,33.1-57.6,34.8
				c-11.4,1.1-17.7-0.6-17.1-13.7c0.6-9.1,11.4-8.6,17.7-6.3c6.8,2.9,10.3,8.6,4.6,14.3c-6.3,5.1-13.1,5.7-18.8,5.7
				c-26.3,0-31.4-24.5-29.7-46.2c1.7-21.1,13.1-57.1,41.1-52.5c8,1.1,13.7,6.8,15.4,14.3c2.9,13.1-10.8,24-18.8,32
				c-20,19.4-46.2,39.4-75.9,37.1c-17.1-1.1-31.4-13.1-41.1-26.3c-4.6-6.3-8-12.6-10.8-19.4c-2.3,0.6-5.1,0.6-6.8,1.1
				c6.8,8.6,46.8,66.2,63.4,46.2c12-14.3-2.9-43.9-11.4-56.5c-14.3-20.5-37.1-26.8-55.9-8.6c-18.3,18.3-40,69.1-9.7,87.9
				c10.8,6.8,17.7-4,20-13.7c5.7-23.4,1.7-54.8-9.1-76.5c-20-40.5-74.8-42.2-112.4-32c-29.7,8-57.1,26.8-78.2,49.7
				c-14.8,17.7-29.1,40.5-26.3,63.9c2.9,26.8,28,48.5,51.9,58.2c28.5,12,61.1,7.4,83.3-14.8C682,437.9,687.7,394.5,690,358
				c4.6-66.2,9.1-132.4,13.7-198.6C704.3,154.8,695.7,149.1,695.2,154.8L695.2,154.8z"/>
		</g>
	</g>
	<g>
		<g>
			<path fill="#0E0F10" d="M615.3,280.4c-15.4-6.3-30.8-12.6-46.8-18.8c1.1,2.9,1.7,5.7,2.9,8c67.3-25.1,147.2-25.7,216.9-12.6
				c6.3,1.1,1.7-8-2.3-8.6c-70.2-13.1-151.2-13.1-219.7,12.6c-4,1.7,1.1,7.4,2.9,8c15.4,6.3,30.8,12.6,46.8,18.8
				C622.1,291.2,619.8,282.1,615.3,280.4L615.3,280.4z"/>
		</g>
	</g>
	<g>
		<g>
			<path fill="#0E0F10" d="M962.8,605.7c-5.7-1.7-12.6-17.7-15.4-23.4c-8-16.6-13.1-33.7-16-51.9c-8-47.9,6.8-94.7,42.8-127.8
				c11.4-10.3,24.5-17.1,40-17.1c14.3,0,28,10.3,28.5,25.1c0.6,16.6-37.1,42.2-43.4,20.5c-2.9-10.8,6.3-23.4,13.7-30.2
				c6.8-6.8,16.6-10.3,25.7-12.6c10.8-2.9,24.5-2.9,34.2-1.7c-1.7-2.9-3.4-5.7-5.1-8c-6.3,5.1-10.3,13.7,0.6,16.6
				c12.6,2.9,27.4-5.1,40-4.6c-1.7-2.9-4-5.7-6.3-8.6c-12.6,9.1-28,29.7-8,40.5c22.8,12.6,54.2-5.1,71.9-19.4
				c12.6-10.3-2.3-25.7-13.7-26.3c-16.6-1.1-20.5,26.8-13.1,37.1c18.8,26.3,67.9-10.8,85-23.4c2.9-1.7,7.4-4.6,6.8-8.6
				c-1.1-5.7-8-8.6-12.6-10.3c-18.3-6.8-28,8-22.8,25.7c12.6,40.5,86.2,4,97-20.5c-2.9-2.3-5.7-4-8.6-6.3c-2.9,16-6.3,31.4-9.1,47.4
				c-0.6,4,6.8,10.8,8.6,6.3c5.7-16.6,10.3-45.1,32-45.7c-1.7-2.9-3.4-6.3-5.1-8.6c-10.8,5.7-29.1,15.4-28,30.2
				c0.6,10.3,12.6,15.4,21.1,16.6c16.6,1.7,90.2-15.4,68.5-42.8c-14.3-17.7-46.8-1.1-43.4,20.5c1.1,9.1,13.7,10.8,20.5,9.1
				c12.6-2.9,25.7-10.3,31.4-21.7c1.7-2.9-4.6-9.1-7.4-7.4c-13.7,6.8-32,21.7-12,34.2c17.7,11.4,44.5,4.6,59.4-8
				c-2.3-2.3-5.1-5.1-7.4-7.4c-6.3,6.3-5.7,14.8,1.7,20c12,8,26.8,4,38.8-2.3c9.7-5.1,30.8-17.7,27.4-31.4
				c-2.3-9.7-11.4-14.8-20.5-17.7c-9.1-2.9-20-2.3-27.4,3.4c-8,6.3-4.6,20,1.7,26.3c9.7,10.3,24,13.7,37.7,15.4
				c6.8,1.1,14.3,1.7,21.7,2.3c4,0,10.3-0.6,13.7,1.1c6.8,3.4,4.6-5.7,0-8c-9.7-4.6-24.5-2.9-34.8-4c-9.7-1.1-48.5-9.1-32-26.3
				c6.8-6.8,35.4-4.6,30.2,8.6c-4.6,11.4-22.8,21.1-33.7,25.1c-5.1,1.7-26.8,5.1-17.1-5.7c3.4-3.4-4.6-10.8-7.4-7.4
				c-10.3,9.1-23.4,12.6-37.1,12.6c-3.4,0-16-1.1-14.8-6.8c1.1-7.4,13.1-12.6,18.3-14.8c-2.3-2.3-5.1-5.1-7.4-7.4
				c-5.7,11.4-20,18.8-32.5,20c-6.8,0.6,4.6-13.7,6.3-15.4c2.3-2.3,19.4-9.1,20.5-1.7c0.6,7.4-12,14.3-17.1,17.1
				c-11.4,6.3-24.5,10.3-37.7,12c-5.7,0.6-22.8,1.7-20-7.4c2.9-9.7,17.1-17.1,24.5-21.1c4.6-2.3-1.7-9.1-5.1-8.6
				c-24.5,1.1-30.2,29.1-36.5,48.5c2.9,2.3,5.7,4,8.6,6.3c2.9-16,6.3-31.4,9.1-47.4c0.6-3.4-6.8-11.4-8.6-6.3
				c-5.7,13.1-21.1,21.1-33.7,26.8c-11.4,5.7-32,13.1-43.9,5.1c-6.8-4.6-4-19.4,1.7-22.8c2.3-1.1,6.3-1.1,8.6-0.6
				c1.1,0,2.9,0.6,4,1.1c5.7,2.3-1.1,1.1,1.7-2.3c-6.3,6.8-16,12.6-23.4,17.1c-11.4,6.8-24,13.7-36.5,17.1c-4,1.1-11.4,2.9-15.4,0.6
				c-6.3-3.4,0-20,3.4-23.4c5.7-6.8,16-1.7,8.6,6.3c-9.1,9.7-25.1,16-37.7,20c-5.1,1.1-24.5,5.7-26.8-2.3
				c-2.9-8.6,10.8-18.8,16.6-22.8c3.4-2.9-3.4-8.6-6.3-8.6c-7.4,0-14.8,1.1-21.7,2.9c-4.6,0.6-9.1,1.7-13.7,2.3
				c-3.4,0-2.9,1.1,1.1,5.7c0-1.7,4-4.6,5.7-5.7c2.9-2.3-2.3-8-5.1-8c-31.4-4.6-82.2,6.8-80.5,47.4c1.7,40,78.2,17.7,59.4-23.4
				c-9.7-21.1-33.1-29.7-54.8-24c-28.5,6.8-51.4,38.2-62.8,63.9c-20,43.4-12.6,95.9,6.8,137.5c5.1,11.4,13.7,29.7,26.8,34.2
				C970.8,616.5,966.8,607.4,962.8,605.7L962.8,605.7z"/>
		</g>
	</g>
</g>
<g>
	<g>
		<g>
			<path fill="#0E0F10" d="M1583.2,417.9c-21.1-5.7-41.1,5.1-32.5,28.5c6.3,16.6,22.3,28,38.8,33.7c22.3,6.8,44.5-3.4,61.1-18.8
				c25.7-23.4,34.8-60.5,48.5-91.3c-1.7,0-4,0-5.7,0c4.6,2.9,9.1,5.7,13.7,8c-1.1-2.3-2.3-4.6-2.9-6.3
				c-13.7,26.3-31.4,85.6,18.3,81.6c5.7-0.6,0-9.1-4.6-9.1c-10.8,0.6-19.4-0.6-20.5-12.6c-0.6-8,1.1-16.6,3.4-24.5
				c2.9-10.3,6.8-20,12-29.1c1.1-2.3-1.7-5.7-2.9-6.3c-4.6-2.9-9.1-5.7-13.7-8c-1.7-1.1-4.6-2.3-5.7,0
				c-17.7,39.4-30.8,94.2-77.6,107.9c-14.3,4-29.7,0-41.1-8.6c-8-6.3-14.8-17.1-13.1-27.4c2.3-12.6,18.8-11.4,27.4-9.1
				C1591.8,428.8,1587.2,419.1,1583.2,417.9L1583.2,417.9z"/>
		</g>
	</g>
	<g>
		<g>
			<path fill="#0E0F10" d="M1795.5,414.5C1796.1,414.5,1796.1,414.5,1795.5,414.5c2.9,2.9,9.1,2.9,6.3-2.3c-5.7-9.7-18.8-18.3-28-24
				c-12.6-7.4-29.7-13.1-40,1.1c-9.1,13.7-9.7,36,9.1,40.5c17.1,3.4,37.7-8,46.8-21.7c2.9-4.6,4.6-9.7,1.1-14.8
				c-3.4-5.1-8.6-4.6-12-0.6c-9.1,10.8-10.3,36.5,4.6,43.4c7.4,3.4,16,2.9,24,0.6c14.8-3.4,33.7-12,43.9-23.4
				c9.1-10.3,6.3-35.4-12-33.7c-20.5,2.3-16,37.7-4,47.4c14.8,11.4,41.1,3.4,51.4-11.4c10.8-14.8-13.7-30.8-23.4-38.8
				c-26.8-22.3-59.4-37.7-93-46.2c1.1,2.9,2.9,5.7,4,8.6c38.2-8.6,78.2-10.3,117-13.1c5.7,0,0-9.1-4.6-9.1
				c-39.4,2.3-79.9,4.6-118.7,13.1c-5.1,1.1,2.3,8,4,8.6c28.5,7.4,55.4,19.4,79.9,37.1c6.8,5.1,13.7,10.8,20.5,17.1
				c6.3,5.7,11.4,9.7,4.6,17.7c-5.1,6.3-13.7,9.1-21.1,11.4c-4.6,1.1-9.1,1.1-13.7,0c-8.6-1.7-8.6-17.1-6.8-24
				c1.7-9.1,14.3-14.8,12,0c-2.9,15.4-26.3,22.8-39.4,27.4c-6.8,2.3-25.1,8-26.3-3.4c-0.6-5.7,0.6-12.6,2.3-17.7
				c0.6-2.3,1.7-4,3.4-5.7c2.3-2.3-2.9-6.8-4.6-2.3c-4.6,15.4-29.1,26.8-43.9,23.4c-8.6-1.7,3.4-25.1,6.8-28
				c6.3-6.3,16-2.3,22.8,0.6c6.8,3.4,12.6,8,18.3,13.1c1.7,1.7,4,3.4,5.7,5.1c1.1,1.1,4,5.1,1.1,0.6c2.3-0.6,4-1.7,6.3-2.3l0,0
				C1795.5,405.4,1791,409.9,1795.5,414.5L1795.5,414.5z"/>
		</g>
	</g>
	<g>
		<g>
			<path fill="#0E0F10" d="M1943.4,404.8c0,1.1,0,2.3,0.6,2.9c1.1,2.3,4,5.1,6.8,4.6c2.9-0.6,3.4-7.4,3.4-9.7
				c0.6-7.4-2.9-13.7-7.4-19.4c-4.6-5.1-13.7-10.8-21.1-9.7c-6.8,1.1-10.3,7.4-13.1,12.6c-5.1,10.3-7.4,30.2,5.7,36.5
				c11.4,5.1,29.1,0,33.7-13.1c1.1-4-6.8-10.8-8.6-6.3c-2.3,6.8-9.7,10.8-17.1,12c-6.3,0.6-8,0.6-8.6-5.1c0-4.6,0.6-9.1,2.3-13.7
				c1.1-4,3.4-8,6.8-11.4c4-4,7.4-2.9,12.6-0.6c4.6,2.3,6.8,6.8,6.8,12c0,1.7,0,3.4-0.6,5.1c0,1.1-1.1,1.7,0,1.1
				c2.3,1.1,4.6,2.9,6.8,4.6c0,1.7,0.6,2.3,0.6,1.1C1953.1,405.4,1944.5,399.1,1943.4,404.8z"/>
		</g>
	</g>
	<g>
		<g>
			<path fill="#0E0F10" d="M1968.5,569.2c-0.6,1.7-14.3-13.7-16-16c-6.8-9.7-11.4-21.1-14.8-32c-7.4-22.8-10.8-47.4-8.6-70.8
				c1.7-21.1,9.1-43.4,26.8-56.5c17.7-13.1,70.8-19.4,74.8,12c1.7,13.7-12.6,21.1-22.8,25.1c-5.7,2.3-25.7,5.7-17.1-6.3
				c6.3-8.6,20-12,29.1-15.4c17.1-5.7,36-6.3,54.2-5.7c13.1,0,26.3,0.6,38.8-3.4c9.1-3.4-19.4-24.5-21.1-25.7
				c-14.3-8-30.8-5.1-25.7,15.4c2.9,12,13.1,16.6,24.5,13.7c9.1-2.3,24.5-11.4,24-22.3c0-2.9-6.8-10.3-8.6-5.1
				c-6.3,16,9.1,25.7,22.8,29.1c10.8,2.3,36.5,4,41.7-9.1c-2.9-1.7-6.3-3.4-8.6-5.1c-0.6,6.3-1.1,12-1.7,18.3c0,5.1,0.6,16-1.1,20.5
				c2.3,0.6,5.1,1.1,7.4,1.7c-4.6-7.4-8-16.6-12.6-24.5c-7.4-13.1-17.7-24.5-24.5-37.7c-2.3-4.6-9.1-17.1,1.7-18.3
				c7.4-0.6,15.4,0,23.4,1.1c14.3,2.3,28,8,40.5,16c2.9,1.7,16.6,12.6,16.6,12.6c-4,7.4-7.4,14.3-5.1,23.4
				c2.9,10.8,14.8,16,25.7,13.1c15.4-4.6,15.4-25.7,11.4-37.7c-4-13.1-15.4-21.7-28.5-24.5c-12-2.3-25.7,1.7-33.1,12
				c-8.6,12-1.7,27.4,5.7,38.2c3.4,4.6,10.8,3.4,6.8-2.3c-9.1-12.6-10.8-27.4,4-36c12.6-6.8,29.1-4,35.4,9.1c4,8,4,20-1.7,27.4
				c-2.9,4-12.6,8.6-16.6,3.4c-5.7-6.8,5.1-14.8,5.1-21.1c0-3.4-2.3-6.3-4.6-8.6c-10.3-11.4-24-19.4-37.7-25.1
				c-14.8-6.8-42.8-15.4-58.8-8c-12.6,5.7,5.7,32.5,9.1,38.2c8,12,16.6,22.8,22.8,36c2.9,5.7,5.1,11.4,8,16c1.1,2.3,6.3,5.1,7.4,1.7
				c2.3-4.6,0.6-14.3,1.1-19.4c0.6-6.8,1.1-13.7,1.7-21.1c0-3.4-6.8-9.7-8.6-5.1c-5.7,13.7-54.2,11.4-47.4-6.8
				c-2.9-1.7-6.3-3.4-8.6-5.1c0.6,8-11.4,14.3-17.1,16.6c-4.6,2.3-13.1,5.1-13.7-2.9c-0.6-6.3,0.6-13.7,8.6-12.6
				c8,1.7,17.1,9.1,22.3,15.4c1.1,1.1-0.6-1.7-4-0.6c-3.4,1.1-7.4,1.1-10.8,1.1c-8,0.6-16.6,0-24.5,0c-16,0-32,1.1-47.4,5.1
				c-13.7,3.4-32,9.1-38.2,22.3c-2.9,6.3,1.1,13.1,6.3,16.6c9.7,6.8,22.3,3.4,32.5,0c17.1-6.8,27.4-24.5,17.1-41.1
				c-12.6-19.4-36.5-24.5-58.2-21.1c-47.4,6.8-59.9,54.2-57.6,95.3c1.7,26.3,8.6,52.5,20.5,75.3c2.3,4.6,32,45.7,37.1,29.1
				C1978.2,570.9,1969.6,564.6,1968.5,569.2L1968.5,569.2z"/>
		</g>
	</g>
	<g>
		<g>
			<path fill="#0E0F10" d="M2236.1,550.9c-3.4,6.8-6.8,13.7-9.7,20.5c1.7,0,4,0,5.7,0c-6.8-5.1-9.7-17.7-12.6-25.1
				c-5.1-14.8-8.6-30.2-11.4-45.7c-6.3-34.8-6.8-73.6,6.8-107.3c6.8-15.4,18.3-28.5,33.7-36.5c21.7-11.4,53.1-5.7,54.2,23.4
				c0,10.3-6.8,20-15.4,24c-9.7,4-12.6-5.1-8-12.6c4.6-6.8,13.7-10.8,20.5-14.3c17.1-8,38.8-12.6,57.6-9.1c-1.1-2.9-2.9-5.7-4-8.6
				c-10.3,4-22.3,10.3-22.3,22.8c0,9.7,8,17.7,15.4,22.3c25.7,15.4,49.7-1.1,55.4-27.4c0.6-2.9-5.7-10.8-8-6.8
				c-7.4,11.4-14.3,27.4,0,36.5c10.3,6.3,25.1,1.7,30.8-9.1c-2.9-2.3-5.7-4-8.6-6.3c-11.4,26.8,18.8,34.8,38.8,30.2
				c10.8-2.3,22.8-9.1,25.1-20.5c2.3-9.7-3.4-22.8-10.3-30.2c-12.6-12.6-27.4,0-26.3,14.8c2.9,29.7,44.5,35.4,67.3,36.5
				c5.7,0,0-8.6-4.6-9.1c-16-0.6-47.4-2.3-53.6-21.7c-1.7-6.3,2.3-18.8,10.8-16.6c5.1,1.1,6.8,12.6,7.4,16.6
				c1.7,8.6-6.3,14.8-13.1,18.3c-12.6,6.3-43.4,10.3-33.7-12c1.7-4-6.3-10.8-8.6-6.3c-2.9,5.7-8.6,8-14.3,8.6
				c-14.3,1.7-3.4-17.1,0-22.3c-2.9-2.3-5.7-4.6-8-6.8c-4.6,20-18.3,36-40,29.1c-6.8-1.7-13.1-6.8-13.1-14.3
				c0-9.1,12.6-14.3,20-17.1c4.6-1.7-1.7-8-4-8.6c-24-4.6-49.7,2.3-70.8,13.7c-14.8,8-26.8,32-4.6,39.4c20,6.3,34.2-16.6,31.4-34.2
				c-3.4-18.8-20-35.4-40-36.5c-49.7-2.9-71.9,49.1-75.3,90.2c-4,41.1,3.4,85.6,19.4,123.8c3.4,7.4,6.8,16,13.7,21.7
				c1.7,1.1,4.6,2.3,5.7,0c3.4-6.8,6.8-13.7,9.7-20.5C2247,553.2,2238.4,546.3,2236.1,550.9L2236.1,550.9z"/>
		</g>
	</g>
</g>
<g>
	<g>
		<g>
			<path fill="#0D0F0F" d="M1466.6,787.2c-12-6.3-10.1-32.8-10.1-43.5c0-26.5,4.4-52.3,9.5-78.2c10.7-58,27.1-114.8,47.3-170.2
				c3.8-10.7,8.2-21.4,12.6-31.5c2.5-5.7,11.3-16.4,6.9-22.7c-3.2-5-12.6-12-18.9-12c-5,0-6.9,8.8-8.8,12
				c-6.3,12-12.6,23.3-18.9,35.3c-33.4,61.8-67.5,123-104.7,182.9c-19.5,31.5-39.7,63.1-64.9,90.2c-17,18.9-41.6,40.4-68.7,35.9
				c-49.2-8.2-12.6-75.7,3.2-96.5c25.2-32.2,61.2-59.9,97.1-79.4c35.9-19.5,80.1-22.7,116.7-3.8c41.6,22.1,47.9,66.2,32.8,107.2
				c-1.9,5.7-15.1,30.3-21.4,16.4c-7.6-17,0-41.6,5-58.6c-1.3,0-3.2,0.6-5,0.6c15.8,8.8,34,17.7,52.3,15.1
				c18.3-1.9,28.4-19.5,33.4-35.3c-3.2-2.5-6.3-4.4-9.5-6.9c-3.8,13.2-17.7,59.9,9.5,61.2c22.1,0.6,30.3-39.7,30.9-54.2
				c0-3.8-8.8-10.7-9.5-5.7c-3.2,17.7-6.9,35.3-10.1,53c3.2,1.9,6.9,3.8,9.5,5.7c0-24.6,33.4-36.6,51.7-46.7
				c4.4-2.5-1.9-10.1-5.7-9.5c-20.8,1.9-29.6,28.4-18.3,44.8c20.8,31.5,51.1-22.7,59.3-37.2c1.9-3.8-6.9-11.3-9.5-6.9
				c-6.9,10.7-18.9,30.9-7.6,42.9c13.2,13.9,42.9-1.9,31.5-20.2c-2.5-4.4-18.3-13.2-5.7-15.1c7.6-1.3,15.8-2.5,15.8,6.3
				c0,5.7-1.9,11.3-2.5,17c-1.3,25.2,29,18.9,42.9,12c5-2.5-2.5-12-6.9-9.5c-6.9,3.8-26.5,13.2-25.9,0c0.6-8.2,3.8-15.8,1.3-24
				c-4.4-13.2-29-16.4-38.5-8.2c-9.5,8.2,10.7,19.5,11.3,25.2c0,8.8-10.7,13.2-17.7,12.6c-1.9,0,1.9-12.6,2.5-14.5
				c1.9-6.3,5.7-12,8.8-17c-3.2-2.5-6.3-4.4-9.5-6.9c-1.3,2.5-35.9,59.3-42.9,39.7c-4.4-12.6,2.5-29.6,16.4-30.3
				c-1.9-3.2-3.8-6.9-5.7-9.5c-20.2,11.3-54.2,24-54.2,51.7c0,3.8,8.8,10.7,9.5,5.7c3.2-17.7,6.9-35.3,10.1-53
				c-3.2-1.9-6.9-3.8-9.5-5.7c-0.6,16.4-6.3,34.7-18.9,46c-5.7,5-7.6,5-8.2-1.9c-1.3-13.2,3.2-26.5,6.3-38.5c1.3-4.4-7.6-12-9.5-6.9
				c-5.7,15.8-13.9,30.3-31.5,32.8c-15.1,1.9-31.5-7.6-44.8-14.5c-1.3-0.6-4.4-1.3-5,0.6c-6.9,21.4-14.5,51.1-0.6,71.3
				c9.5,13.9,24,7.6,30.9-4.4c30.9-53.6,7.6-114.8-47.3-138.7c-73.1-32.2-150.1,22.7-199.3,73.8c-24.6,25.2-58.6,73.1-34.7,109.7
				c18.3,28.4,53,24,77.6,6.9c20.2-13.9,35.9-33.4,49.8-52.3c28.4-37.8,53-79.4,76.9-119.8c18.9-32.2,37.2-65.6,55.5-98.4
				c10.7-19.5,21.4-38.5,31.5-58c0.6-0.6,6.9-13.9,7.6-13.2c0.6-2.5,1.3-1.9,2.5-0.6c3.2,2.5,3.2,2.5,0.6,0c-2.5,5-5,10.1-7.6,15.1
				c-29,64.3-47.9,135.6-60.5,204.9c-5.7,29.6-10.1,59.3-8.8,89.5c0.6,15.8,3.8,36.6,19.5,44.8
				C1473.5,799.1,1471,789.1,1466.6,787.2L1466.6,787.2z"/>
		</g>
	</g>
</g>
<g>
	<g>
		<g>
			<path fill="#0D0F0F" d="M1754.1,621.3c42.9,35.3,112.9-1.9,154.5-23.3c8.8-5,44.8-20.8,34.7-35.9c-11.3-15.8-35.3,15.8-41,23.3
				c-20.8,29-33.4,64.9-41,99c-5,22.7-12,62.4,13.2,76.9c12,6.9,26.5,2.5,38.5-2.5c27.1-12,50.4-32.8,71.9-52.3
				c24.6-22.1,47.9-46.7,64.9-75.7c7.6-12.6,14.5-29,10.1-44.1c-8.2-29.6-42.9-12-56.1,1.9c-15.8,16.4-25.2,37.8-32.2,59.9
				c-6.3,20.8-15.8,53-1.9,72.5c12,16.4,35.9,13.9,53,10.1c27.7-6.3,53.6-19.5,76.9-35.3c27.7-18.9,81.3-61.8,66.8-102.8
				c-10.1-28.4-40.4-18.3-54.9,0c-15.1,18.3-22.1,43.5-25.2,66.2c-3.2,18.3-6.9,37.8,6.3,53.6c34.7,42.9,100.9-19.5,123.6-44.8
				c17.7-19.5,51.1-64.3,33.4-92.7c-19.5-30.9-46,30.3-50.4,42.2c-6.3,15.8-10.7,32.8-14.5,49.2c-3.2,13.2-6.3,26.5-0.6,39.7
				c6.9,15.8,26.5,15.1,38.5,6.3c15.1-10.1,12.6-33.4-2.5-42.2c-18.9-10.7-34,10.7-30.3,28.4c5.7,34,75.7,6.3,92.7-3.2
				c13.2-6.9,21.4-24,6.9-34.7c-17-12.6-29.6,19.5-31.5,30.9c-5,36.6,85.1,16.4,86.4-13.2c0-5.7-7.6-16.4-13.2-9.5
				c-8.8,10.1-12.6,27.7-4.4,39.1c16.4,22.7,46.7-14.5,25.9-29.6c-27.1-19.5-35.9,35.3-39.7,51.1c-8.8,31.5-18.9,64.9-22.1,97.7
				c0,3.8,8.2,10.7,9.5,5.7c9.5-28.4,33.4-51.7,54.2-71.9c18.3-17,38.5-30.9,57.4-46.7c13.2-11.3-5-28.4-15.8-9.5
				c-10.1,18.3,4.4,32.8,23.3,31.5c18.9-1.3,41-27.1,29-45.4c-10.7-16.4-30.9-11.3-37.2,6.3c-6.9,19.5,9.5,30.3,27.1,29
				c25.9-2.5,53.6-19.5,71.9-37.2c13.2-12.6,22.7-30.9,24-49.8c0.6-7.6-3.2-23.3-13.9-20.2c-16.4,4.4-22.1,40.4-25.2,53
				c-3.8,14.5-9.5,53,15.8,53c18.9,0,22.1-22.7,13.2-35.3c-11.3-15.8-31.5-7.6-29,12.6c5,35.9,85.1-0.6,94.6-21.4
				c0.6-1.9-0.6-4.4-1.9-6.3l0,0c-1.3-1.3-4.4-3.2-6.3-1.9c-24.6,13.2-27.7,52.3,5.7,54.2c27.7,1.3,38.5-52.3,8.8-55.5
				c-22.7-2.5-35.3,42.2-8.2,45.4c13.2,1.3,27.1-5,38.5-11.3c8.2-4.4,22.1-12,24.6-22.1c1.3-4.4-6.9-12-9.5-6.9
				c-7.6,13.9-18.3,42.2,6.9,45.4c17.7,2.5,39.1-12.6,45.4-29c1.3-3.8-6.9-12-8.8-7.6c-6.9,10.7-8.2,24.6,1.3,34
				c14.5,13.9,32.2-5.7,41-15.8c12-14.5,4.4-27.1-8.2-37.8c-6.9-5.7-14.5-10.7-22.7-14.5c-3.2-1.9-6.9-3.2-10.1-4.4
				c-4.4-1.9-5-3.8-1.3,0.6c0,2.5,0.6,5,0.6,7.6c2.5-0.6,12,0,15.8,0c12.6,0,25.2-0.6,37.8-1.3c22.7-1.3,49.2-1.9,69.4-12.6
				c5-2.5-2.5-12-6.9-9.5c-22.1,11.3-50.4,11.3-74.4,12.6c-11.3,0.6-22.7,0.6-34,1.3c-5,0-11.3-0.6-15.8,0.6c-3.8,1.3,0,5.7,0.6,7.6
				c2.5,3.2,8.2,3.8,12,5.7c10.1,5,21.4,11.3,29,20.2c10.1,12-9.5,28.4-19.5,34c-14.5,9.5-13.2-8.8-7.6-17c-3.2-2.5-6.3-5-8.8-7.6
				c-4.4,12-15.8,19.5-27.1,23.3c-1.9,0.6-13.9,4.4-15.1,0.6c-2.5-8.2,5.7-20.8,8.8-27.1c-3.2-2.5-6.3-4.4-9.5-6.9
				c-3.8,14.5-59.3,36.6-59.3,27.1c0-8.2,5.7-18.9,13.9-22.7c7.6-3.2,8.2,6.9,8.2,11.3c0,6.3-4.4,13.2-8.2,17.7
				c-6.3,7.6-23.3,10.1-24-3.2c0-8.2,10.1-22.1,17-25.9c-1.9-0.6-3.8-1.3-6.3-1.9l0,0c-0.6-1.9-1.3-3.8-1.9-6.3
				c-8.8,20.8-44.8,29.6-64.9,31.5c-2.5,0-5.7,0-8.2,0c-4.4-0.6-0.6-5.7,0-8.2c3.8-11.3,14.5-3.8,12.6,5.7
				c-1.3,5.7-5.7,11.3-11.3,12.6c-12,1.9-5.7-26.5-5-30.9c3.2-15.1,7.6-30.3,14.5-44.1c1.9-3.8,3.8-6.9,6.9-9.5
				c2.5-2.5,1.3,1.3-1.3-3.2c0.6,1.3,0.6,3.2,0.6,5c1.3,21.4-14.5,42.2-29.6,55.5c-12,10.1-25.9,17.7-40.4,23.3
				c-10.7,4.4-38.5,14.5-33.4-6.3c1.3-6.3,5.7-10.7,12-12.6c12-4.4,8.2,11.3,6.3,16.4c-3.2,7.6-9.5,13.2-17,16.4
				c-5.7,2.5-22.1,4.4-18.9-6.3c1.3-4.4,3.8-7.6,6.9-10.7c5-5.7-3.2-5-6.3-1.3c-3.2,3.2-7.6,5.7-12,8.2
				c-10.1,7.6-20.2,15.1-29.6,23.3c-22.7,19.5-45.4,41.6-61.2,66.8c-4.4,6.9-8.2,13.9-10.7,21.4c3.2,1.9,6.9,3.8,9.5,5.7
				c2.5-27.1,10.7-54.2,17.7-80.7c3.8-13.9,7.6-27.7,11.3-41c1.9-5.7,3.2-11.3,5.7-16.4c1.9-4.4,5-7.6,8.8-8.8c12-5,0,14.5-1.3,16.4
				c-5.7,6.9-10.1,2.5-10.7-4.4c0-5.7,1.9-10.7,4.4-15.8c-0.6-1.9-1.9-4.4-2.5-6.3c-1.3,3.2-3.2,5.7-6.3,8.2
				c-1.3,1.3-3.8,2.5-5.7,3.8c-10.1,6.3-22.7,10.1-34,12.6c-5.7,1.3-12,1.9-17.7,0.6c-6.9-1.3-0.6-12.6,0.6-16.4
				c2.5-6.3,6.3-12,12-15.1c6.3-3.8,3.8,4.4,1.9,7.6c-6.9,14.5-38.5,20.8-52.3,24.6c-9.5,2.5-22.1,5.7-31.5,1.9
				c-10.1-3.8,14.5-44.1,22.1-18.3c3.2,11.3-7.6,20.8-17,24c-22.7,7.6-12-29.6-10.1-39.7c6.3-27.1,14.5-57.4,30.9-80.1
				c4.4-6.3,15.1-18.9,17-5.7c1.9,17-7.6,35.3-15.8,49.8c-17,29-44.8,54.2-73.8,71.9c-15.1,9.5-47.3,22.7-58,0
				c-4.4-8.8-1.9-18.9-1.3-28.4c1.9-16.4,5.7-32.8,11.3-48.6c6.3-16.4,16.4-35.3,34-41.6c12-4.4,18.9,3.2,18.9,15.1
				c0,21.4-16.4,41-29.6,54.9c-22.1,23.3-49.8,41.6-79.4,54.9c-15.1,6.9-66.8,27.7-75,2.5c-4.4-13.9,1.3-33.4,4.4-47.3
				c3.2-13.9,7.6-27.1,14.5-39.7c8.2-16.4,20.8-34,37.8-42.2c9.5-5,20.2-5.7,20.8,7.6c0,21.4-17,43.5-29.6,59.3
				c-23.3,29.6-52.3,56.1-82.6,78.8c-15.1,11.3-36.6,27.1-56.7,25.9c-22.7-1.3-14.5-44.1-12-56.7c5.7-29.6,16.4-59.3,30.3-85.8
				c7.6-14.5,16.4-26.5,28.4-37.2c1.3-1.3,3.2-2.5,5-3.8c1.3-0.6,1.9-1.3,3.2-1.9c3.2-0.6,2.5-2.5-1.9-4.4
				c-1.3,4.4-6.3,7.6-8.8,10.1c-8.2,6.9-18.9,12-29,16.4c-21.4,11.3-43.5,20.8-66.8,27.7c-22.7,6.9-52.3,12-72.5-5
				C1750.3,608.7,1749.7,616.9,1754.1,621.3L1754.1,621.3z"/>
		</g>
	</g>
</g>
</svg>
